<?xml version="1.0" encoding="UTF-8"?>
<svg id="Layer_1" data-name="Layer 1" xmlns="http://www.w3.org/2000/svg" viewBox="0 0 1650.2 583.98">
  <defs>
    <style>
      .cls-1 {
        fill: none;
        stroke: #fff;
        stroke-width: 6px;
      }
    </style>
  </defs>
  <path class="cls-1" d="M180.79,417.8v40.53h-38.65V106.26h39.12v156.86M182.31,261.03c5.39-7.71,11.11-13.24,14.24-16.06,0,0,5.84-5.26,12.41-9.48,15.67-10.09,33.92-15.14,54.72-15.14,15.83,0,30.27,2.87,43.31,8.62,13.04,5.75,24.37,13.97,34,24.68,9.62,10.71,17,23.44,22.12,38.19,5.12,14.75,7.68,31.13,7.68,49.13,0,24.22-4.5,45.41-13.5,63.57-9.01,18.16-21.5,32.29-37.49,42.38-15.99,10.09-34.54,15.14-55.65,15.14-15.83,0-30.2-2.87-43.08-8.62-12.89-5.74-23.83-13.97-32.83-24.68-3.3-3.93-6.19-8.16-6.52-8.64,0,0-.95-1.41-1.87-2.86M256.23,429.92c14.9,0,27.94-3.73,39.12-11.18,11.18-7.45,19.87-17.85,26.08-31.2,6.21-13.35,9.31-28.87,9.31-46.57s-3.11-33.22-9.31-46.57c-6.21-13.35-14.9-23.67-26.08-30.97-11.18-7.29-24.22-10.94-39.12-10.94s-27.94,3.65-39.12,10.94c-11.18,7.3-19.95,17.62-26.31,30.97-6.37,13.35-9.55,28.87-9.55,46.57,0,13.35,1.78,25.46,5.36,36.32,3.57,10.87,8.69,20.26,15.37,28.18,6.67,7.92,14.59,13.97,23.75,18.16,9.15,4.19,19.33,6.29,30.5,6.29Z"/>
  <path class="cls-1" d="M428.54,458.33V106.26h39.12v352.07h-39.12Z"/>
  <path class="cls-1" d="M565.99,350.08c0,.41-.1,2.33-.07,2.73,1.13,13.92,4.31,26.12,9.55,36.59,6.67,13.35,15.91,23.45,27.71,30.27,11.79,6.83,25.3,10.25,40.52,10.25,12.11,0,22.82-2.02,32.13-6.05,9.31-4.03,17-9.55,23.05-16.53,6.05-6.99,10.16-14.51,12.34-22.59h39.12c-2.79,14.9-8.85,28.18-18.16,39.82s-21.42,20.8-36.32,27.48c-14.9,6.67-32.29,10.01-52.16,10.01-24.84,0-46.1-5.12-63.8-15.37-17.7-10.25-31.2-24.45-40.52-42.61-9.31-18.16-13.97-39.04-13.97-62.64s4.42-44.47,13.27-62.64c8.85-18.16,21.96-32.44,39.35-42.84,17.38-10.4,38.49-15.6,63.34-15.6s45.01,5.12,61.47,15.37c16.45,10.25,28.95,24.45,37.49,42.61,8.54,18.16,12.81,39.05,12.81,62.64v12.57h-187.53M715.96,326.27c0-12.01-3.96-22.95-8.55-32.5-6.05-12.57-14.67-22.35-25.85-29.34-11.18-6.99-24.38-10.48-39.58-10.48-14.28,0-27.17,3.26-38.65,9.78-11.49,6.52-20.57,16.23-27.24,29.11-4.41,8.51-9.24,21.8-9.24,33.44M564.54,322.81h151.43"/>
  <path class="cls-1" d="M849.26,269.6c7.14-16.6,16.02-27.13,29.84-35.98,13.81-8.85,30.81-13.27,50.99-13.27,14.9,0,27.86,2.18,38.89,6.52,11.02,4.35,20.03,10.79,27.01,19.33,6.99,8.54,12.18,18.86,15.6,30.97,3.41,12.11,5.12,25.93,5.12,41.45v139.71h-39.12v-125.27c0-15.52-1.4-28.41-4.19-38.65-2.79-10.25-6.83-18.32-12.11-24.22-5.28-5.89-11.72-10.09-19.33-12.57-7.61-2.48-16.23-3.73-25.85-3.73-12.11,0-23.13,3.19-33.06,9.55-9.94,6.37-17.93,16.69-23.98,30.97-6.05,14.28-9.08,33.53-9.08,57.75v106.18h-39.12v-234.25h38.65v46.98"/>
  <path class="cls-1" d="M1259.34,415.85c-8.54,18.16-12.5,20.98-28.17,31.07-15.68,10.09-34.08,15.14-55.19,15.14-15.83,0-30.27-2.87-43.31-8.62-13.04-5.74-24.3-13.97-33.76-24.68-9.47-10.71-16.76-23.52-21.89-38.42-5.12-14.9-7.68-31.35-7.68-49.36,0-24.22,4.5-45.33,13.5-63.34,9-18,21.58-32.05,37.72-42.15,16.14-10.09,34.77-15.14,55.88-15.14,15.83,0,30.11,2.87,42.84,8.62,12.73,5.75,30.58,22.28,39.58,32.99M1183.89,429.92c14.9,0,28.01-3.73,39.35-11.18,11.33-7.45,20.1-17.85,26.31-31.2,6.21-13.35,9.31-28.87,9.31-46.57,0-13.35-1.79-25.45-5.36-36.32-3.57-10.86-8.7-20.18-15.37-27.94-6.68-7.76-14.6-13.74-23.75-17.93-9.16-4.19-19.33-6.29-30.5-6.29-14.9,0-27.94,3.65-39.12,10.94-11.18,7.3-19.87,17.62-26.08,30.97-6.21,13.35-9.31,28.87-9.31,46.57s3.1,33.22,9.31,46.57c6.21,13.35,14.9,23.75,26.08,31.2,11.18,7.45,24.22,11.18,39.12,11.18ZM1258.87,264.03V106.26h39.12v352.07h-38.65v-45.04"/>
  <path class="cls-1" d="M1448.41,462.05c-19.87,0-36.87-3.11-50.99-9.31-14.13-6.21-24.84-14.82-32.13-25.85-7.3-11.02-10.94-23.82-10.94-38.42h39.12c0,7.76,2.02,14.75,6.05,20.96,4.03,6.21,10.08,11.02,18.16,14.44,8.07,3.42,18.16,5.12,30.27,5.12,15.52,0,27.78-3.1,36.79-9.31,9-6.21,13.5-14.74,13.5-25.61,0-8.38-2.49-14.82-7.45-19.33-4.97-4.5-11.57-8.07-19.79-10.71-8.23-2.63-17.23-4.89-27.01-6.75-9.78-1.86-19.64-4.03-29.57-6.52-9.94-2.48-19.02-6.13-27.24-10.94-8.23-4.81-14.83-11.41-19.79-19.79-4.97-8.38-7.45-19.25-7.45-32.6,0-20.8,7.68-37.18,23.05-49.13,15.37-11.95,35.47-17.93,60.31-17.93,17.38,0,32.67,2.87,45.87,8.62,13.19,5.75,23.52,13.82,30.97,24.22,7.45,10.41,11.18,22.59,11.18,36.56h-37.72c0-10.86-4.5-19.71-13.5-26.55-9.01-6.83-20.65-10.25-34.93-10.25s-25.15,3.03-33.53,9.08c-8.38,6.05-12.57,14.52-12.57,25.38,0,8.08,2.48,14.36,7.45,18.86,4.96,4.5,11.56,7.92,19.79,10.25,8.22,2.33,17.23,4.35,27.01,6.05,9.78,1.71,19.48,3.81,29.11,6.29,9.62,2.49,18.55,6.05,26.78,10.71,8.22,4.66,14.82,11.18,19.79,19.56,4.96,8.38,7.45,19.41,7.45,33.07,0,21.42-8,38.42-23.98,50.99-15.99,12.57-37.34,18.86-64.03,18.86Z"/>
</svg>