<?xml version="1.0" encoding="UTF-8"?>
<svg id="Layer_1" data-name="Layer 1" xmlns="http://www.w3.org/2000/svg" viewBox="0 0 1650.2 583.98">
  <defs>
    <style>
      .cls-1 {
        fill: none;
        stroke: #231f20;
        stroke-width: 6px;
      }
    </style>
  </defs>
  <path class="cls-1" d="M88.72,313.46c.07,15.62,4.26,30.05,9.92,41.68,6.98,14.34,16.64,25.19,28.99,32.52,12.34,7.34,26.47,11.01,42.39,11.01,12.67,0,23.87-2.17,33.62-6.5,9.74-4.33,17.78-10.26,24.12-17.76,6.33-7.5,10.64-15.59,12.91-24.26h40.93c-2.92,16.01-9.26,30.27-19,42.77-9.74,12.51-22.41,22.35-38,29.52-15.59,7.17-33.79,10.76-54.57,10.76-25.99,0-48.24-5.5-66.75-16.51-18.52-11.01-32.64-26.26-42.39-45.78-9.74-19.51-14.62-41.94-14.62-67.29s4.63-47.78,13.89-67.29c9.26-19.51,22.98-34.85,41.17-46.02,18.19-11.17,40.27-16.76,66.26-16.76s47.09,5.5,64.31,16.51c17.21,11.01,30.28,26.26,39.22,45.78,8.93,19.51,13.4,41.94,13.4,67.29v13.51H86.64M244.89,286.61c0-12.44-4.18-25.33-8.84-35.28-6.33-13.51-15.35-24.01-27.04-31.52-11.69-7.5-25.5-11.26-41.41-11.26-14.94,0-28.43,3.5-40.44,10.51-12.02,7-21.52,17.43-28.5,31.27-4.9,9.7-9.46,22.81-9.54,36.28M87.7,283.6h158.03"/>
  <path class="cls-1" d="M385.16,224.91c7.47-17.84,16.71-27.6,31.16-37.11,14.45-9.51,32.23-14.26,53.35-14.26,15.59,0,29.15,2.34,40.68,7,11.53,4.67,20.95,11.59,28.26,20.76,7.31,9.18,12.74,20.26,16.32,33.27,3.57,13.01,5.36,27.85,5.36,44.52v150.08h-40.93v-134.57c0-16.67-1.46-30.52-4.39-41.52-2.92-11.01-7.15-19.68-12.67-26.01-5.53-6.33-12.26-10.83-20.22-13.51-7.96-2.67-16.98-4-27.04-4-12.67,0-24.2,3.42-34.59,10.26-10.4,6.84-18.76,17.93-25.09,33.27-6.33,15.34-9.5,36.02-9.5,62.03v114.06h-40.93v-251.64h40.44v52.36"/>
  <path class="cls-1" d="M657.61,313.78c-.19,15.26,4.55,29.95,10.12,41.36,6.98,14.34,16.64,25.19,28.99,32.52,12.34,7.34,26.47,11.01,42.39,11.01,12.67,0,23.87-2.17,33.62-6.5,9.74-4.33,17.78-10.26,24.12-17.76,6.33-7.5,10.64-15.59,12.91-24.26h40.93c-2.92,16.01-9.26,30.27-19,42.77-9.74,12.51-22.41,22.35-38,29.52-15.59,7.17-33.79,10.76-54.57,10.76-25.99,0-48.24-5.5-66.75-16.51-18.52-11.01-32.64-26.26-42.39-45.78-9.74-19.51-14.62-41.94-14.62-67.29s4.63-47.78,13.89-67.29c9.26-19.51,22.98-34.85,41.17-46.02,18.19-11.17,40.27-16.76,66.26-16.76s47.09,5.5,64.31,16.51c17.21,11.01,30.28,26.26,39.22,45.78,8.93,19.51,13.4,41.94,13.4,67.29v13.51h-197.59M814.32,286.82c0-12.52-4.5-25.49-9.19-35.49-6.33-13.51-15.35-24.01-27.04-31.52-11.69-7.5-25.5-11.26-41.41-11.26-14.94,0-28.43,3.5-40.44,10.51-12.02,7-21.52,17.43-28.5,31.27-4.86,9.64-9.77,23.14-9.64,36.49M656.92,283.6h158.57"/>
  <path class="cls-1" d="M954.7,234.82c7.31-19.17,17.94-33.85,31.91-44.02,13.96-10.17,31.02-15.26,51.16-15.26,2.6,0,5.44.09,8.53.25,3.08.17,5.76.59,8.04,1.25v41.02c-15.92,0-30.05,1.34-42.39,4-12.35,2.67-22.74,7.59-31.18,14.76-8.45,7.18-14.86,17.35-19.25,30.52-4.39,13.18-6.58,30.1-6.58,50.78v111.06h-40.93v-251.64h40.44v58.86"/>
  <path class="cls-1" d="M1283.88,385.17c-8.01,13.01-15.9,23.63-27.83,31.75-15.92,10.84-34.59,16.26-56.03,16.26-16.89,0-32.32-3.09-46.29-9.26-13.97-6.17-25.99-15.01-36.06-26.51-10.07-11.51-17.87-25.26-23.39-41.27-5.53-16.01-8.28-33.68-8.28-53.03,0-26.01,4.79-48.69,14.37-68.04,9.58-19.34,22.9-34.43,39.95-45.27,17.05-10.83,36.95-16.26,59.69-16.26,21.44,0,40.11,5.42,56.03,16.26,11.55,7.87,21.26,17.98,29.14,30.33M1284.31,221.68l.49-44.14h40.44v259.64c0,21.68-4.31,40.35-12.91,56.03-8.61,15.67-21.2,27.68-37.76,36.02-16.57,8.33-37.2,12.51-61.88,12.51s-44.51-3.34-60.42-10.01c-15.92-6.68-28.02-15.93-36.3-27.77-8.28-11.84-13.24-25.6-14.86-41.27h40.93c1.62,8.33,4.79,15.84,9.5,22.51,4.7,6.67,11.85,11.84,21.44,15.51,9.58,3.67,22.66,5.5,39.22,5.5s30.21-2.59,40.93-7.75c10.72-5.17,18.59-12.84,23.63-23.01,5.03-10.18,7.55-22.43,7.55-36.77v-55.28M1205.87,398.66c15.59,0,29.31-4,41.17-12.01,11.85-8,21.03-19.17,27.53-33.52,6.49-14.34,9.74-31.02,9.74-50.03,0-14.34-1.87-27.34-5.6-39.02-3.74-11.67-9.1-21.68-16.08-30.02-6.99-8.33-15.27-14.76-24.85-19.26-9.58-4.5-20.22-6.75-31.91-6.75-15.59,0-29.23,3.92-40.93,11.76-11.69,7.84-20.79,18.93-27.29,33.27-6.5,14.34-9.74,31.02-9.74,50.03s3.24,35.69,9.74,50.03c6.49,14.34,15.59,25.51,27.29,33.52,11.69,8,25.34,12.01,40.93,12.01Z"/>
  <path class="cls-1" d="M1463.29,422.4l-98.38-243.54h44.83l73.8,191.9M1483.53,368.85l76.06-191.31h44.34l-145.2,360.2h-42.88l47.2-117.87"/>
</svg>