<?xml version="1.0" encoding="UTF-8"?>
<svg id="Layer_1" data-name="Layer 1" xmlns="http://www.w3.org/2000/svg" viewBox="0 0 1650.2 583.98">
  <defs>
    <style>
      .cls-1 {
        fill: none;
        stroke: #231f20;
        stroke-width: 6px;
      }
    </style>
  </defs>
  <path class="cls-1" d="M99.46,232.67h-57.1v-39.67h56.19M148.24,193h100.26v39.67h-100.02M149.24,233.37v262.64h-50.48V233.37M98.75,193.7v-35.46c0-28.04,3.7-50.98,11.12-68.81,7.41-17.82,18.93-31.05,34.56-39.67,15.63-8.61,35.46-12.92,59.5-12.92,6.01,0,11.92.3,17.73.9,5.8.6,11.21,1.5,16.23,2.7,5,1.2,9.11,2.81,12.32,4.81v45.68c-6.82-4.81-14.93-8.01-24.34-9.62-9.42-1.6-16.93-2.4-22.54-2.4-18.84,0-32.56,6.82-41.17,20.43-8.62,13.63-12.92,33.66-12.92,60.1v34.26"/>
  <path class="cls-1" d="M430.5,500.11c-30.86,0-58-6.61-81.43-19.83-23.44-13.22-41.57-31.55-54.39-54.99-12.83-23.44-19.23-50.38-19.23-80.83s6.4-58,19.23-81.44c12.82-23.44,30.95-41.77,54.39-54.99,23.44-13.22,50.58-19.83,81.43-19.83s58.49,6.61,81.74,19.83c23.23,13.22,41.26,31.55,54.09,54.99,12.82,23.44,19.23,50.59,19.23,81.44s-6.41,57.39-19.23,80.83c-12.83,23.44-30.86,41.77-54.09,54.99-23.24,13.22-50.48,19.83-81.74,19.83ZM430.5,458.04c22.03,0,40.66-4.9,55.89-14.72,15.22-9.81,26.84-23.23,34.86-40.27,8.01-17.03,12.02-36.56,12.02-58.6,0-16.42-2.21-31.65-6.61-45.68-4.41-14.02-11.02-26.14-19.83-36.36-8.82-10.22-19.64-18.12-32.45-23.74-12.83-5.61-27.45-8.41-43.87-8.41-22.04,0-40.67,4.91-55.89,14.72-15.23,9.82-26.85,23.35-34.86,40.57-8.02,17.23-12.02,36.87-12.02,58.9s4,41.57,12.02,58.6c8.01,17.03,19.63,30.45,34.86,40.27,15.22,9.82,33.85,14.72,55.89,14.72Z"/>
  <path class="cls-1" d="M786.28,500.11c-31.66,0-58.3-6.61-79.93-19.83s-37.97-31.55-48.98-54.99c-11.03-23.44-16.53-50.38-16.53-80.83s5.71-57.4,17.13-80.83c11.42-23.44,28.04-41.86,49.88-55.29,21.83-13.42,48.17-20.13,79.03-20.13,23.64,0,44.97,4.31,64.01,12.92,19.02,8.62,34.75,20.64,47.18,36.06,12.41,15.43,20.43,33.16,24.04,53.19h-50.48c-3.21-12.02-8.82-22.54-16.83-31.55-8.02-9.01-17.83-16.02-29.45-21.03-11.63-5.01-24.44-7.51-38.46-7.51-20.43,0-37.67,5.01-51.69,15.02-14.03,10.02-24.55,23.54-31.55,40.57-7.02,17.03-10.52,36.57-10.52,58.6s3.31,41.68,9.92,58.9c6.61,17.23,16.73,30.75,30.35,40.57,13.62,9.82,31.25,14.72,52.89,14.72,22.84,0,41.26-6.01,55.29-18.03,14.02-12.02,23.64-28.85,28.85-50.48h50.48c-3.61,22.44-11.32,41.98-23.14,58.6-11.82,16.63-27.04,29.36-45.68,38.16-18.63,8.81-40.57,13.22-65.81,13.22Z"/>
  <path class="cls-1" d="M1196.76,438.97c-9.11,18.88-21.83,33.54-38.16,44.01-17.83,11.42-39.77,17.13-65.81,17.13-19.23,0-35.97-2.81-50.18-8.41-14.23-5.61-25.84-13.92-34.86-24.94-9.01-11.01-15.73-24.34-20.13-39.97-4.41-15.63-6.61-33.45-6.61-53.49v-180.3h50.48v161.67c0,20.04,1.8,36.66,5.41,49.88,3.61,13.22,8.81,23.65,15.63,31.25,6.81,7.62,15.12,13.03,24.94,16.23,9.81,3.21,20.93,4.81,33.36,4.81,15.63,0,29.84-4.1,42.67-12.32,12.82-8.21,23.14-21.64,30.95-40.27,7.81-18.63,11.72-43.37,11.72-74.22v-137.03h50.48v302.3h-49.88v-56.57"/>
  <path class="cls-1" d="M1440.76,500.11c-25.65,0-47.58-4.01-65.81-12.02-18.24-8.01-32.06-19.13-41.47-33.36-9.42-14.22-14.12-30.74-14.12-49.58h50.48c0,10.02,2.6,19.04,7.81,27.04,5.2,8.02,13.01,14.23,23.44,18.63,10.41,4.41,23.44,6.61,39.06,6.61,20.03,0,35.85-4,47.48-12.02,11.62-8.01,17.43-19.02,17.43-33.05,0-10.82-3.21-19.13-9.62-24.94-6.41-5.8-14.93-10.41-25.54-13.82-10.62-3.4-22.24-6.31-34.86-8.71-12.62-2.4-25.35-5.2-38.16-8.41-12.83-3.2-24.55-7.91-35.16-14.12-10.62-6.21-19.14-14.72-25.54-25.54-6.41-10.82-9.62-24.84-9.62-42.07,0-26.84,9.92-47.98,29.75-63.41,19.83-15.42,45.77-23.14,77.83-23.14,22.43,0,42.16,3.71,59.2,11.12,17.02,7.42,30.35,17.83,39.97,31.25,9.62,13.43,14.42,29.15,14.42,47.18h-48.68c0-14.02-5.81-25.44-17.43-34.26-11.63-8.81-26.65-13.22-45.07-13.22s-32.45,3.91-43.27,11.72c-10.82,7.81-16.23,18.73-16.23,32.75,0,10.42,3.2,18.54,9.62,24.34,6.4,5.81,14.92,10.22,25.54,13.22,10.61,3,22.24,5.62,34.86,7.81,12.62,2.21,25.14,4.91,37.56,8.11,12.41,3.21,23.94,7.81,34.56,13.82,10.61,6.01,19.13,14.42,25.54,25.24,6.4,10.82,9.62,25.05,9.62,42.67,0,27.65-10.32,49.58-30.95,65.81-20.64,16.23-48.18,24.34-82.64,24.34Z"/>
</svg>