<?xml version="1.0" encoding="UTF-8"?>
<svg id="Layer_1" data-name="Layer 1" xmlns="http://www.w3.org/2000/svg" viewBox="0 0 2834.54 583.98">
  <defs>
    <style>
      .cls-1 {
        fill: none;
        stroke: #fff;
        stroke-width: 6px;
      }
    </style>
  </defs>
  <path class="cls-1" d="M249.75,202.34c8.52-14.21,23.42-29.8,37.15-37.06,13.73-7.26,28.96-10.89,45.7-10.89,14.21,0,26.59,2.21,37.17,6.63,10.57,4.42,19.33,10.97,26.28,19.65,6.94,8.69,12.15,19.18,15.63,31.49,3.47,12.31,5.21,26.36,5.21,42.15v142.07h-39.78v-127.39c0-15.78-1.35-28.89-4.03-39.31-2.69-10.42-6.47-18.62-11.37-24.63-4.9-5.99-10.74-10.26-17.52-12.79-6.79-2.52-14.29-3.79-22.49-3.79-10.42,0-20.44,3.24-30.07,9.71-9.63,6.47-17.45,16.97-23.44,31.49-6,14.52-9,34.1-9,58.72v107.97h-39.78v-127.39c0-15.78-1.35-28.89-4.03-39.31-2.69-10.42-6.39-18.62-11.13-24.63-4.74-5.99-10.42-10.26-17.05-12.79-6.63-2.52-13.9-3.79-21.78-3.79-10.74,0-20.92,3.24-30.54,9.71-9.63,6.47-17.45,16.97-23.44,31.49-6,14.52-9,34.1-9,58.72v107.97h-39.78v-238.2h39.31v47.9M101.97,204.05c6.94-16.89,14.6-27.17,27.7-36.17,13.1-9,28.65-13.5,46.65-13.5,13.89,0,25.96,2.13,36.23,6.39,10.26,4.26,18.78,10.58,25.57,18.94,4.66,5.74,8.53,12.34,11.63,19.79"/>
  <path class="cls-1" d="M511.75,286.91c.47,14.54,4.13,28.52,9.57,39.38,6.79,13.58,16.18,23.84,28.18,30.78,11.99,6.95,25.73,10.42,41.2,10.42,12.31,0,23.2-2.05,32.68-6.16,9.47-4.1,17.28-9.71,23.44-16.81,6.16-7.1,10.34-14.75,12.55-22.97h39.78c-2.84,15.15-9,28.65-18.47,40.49s-21.78,21.15-36.94,27.94c-15.15,6.78-32.84,10.18-53.04,10.18-25.26,0-46.88-5.21-64.88-15.63s-31.73-24.86-41.2-43.33-14.21-39.7-14.21-63.69,4.5-45.23,13.5-63.69c9-18.47,22.33-32.99,40.02-43.57,17.68-10.57,39.14-15.86,64.4-15.86s45.77,5.21,62.51,15.63c16.73,10.42,29.43,24.86,38.12,43.33,8.68,18.47,13.02,39.71,13.02,63.69v12.79h-192.12M663.69,261.65c0-11.69-4.33-24.28-8.83-33.63-6.16-12.79-14.92-22.73-26.28-29.83s-24.79-10.66-40.25-10.66c-14.53,0-27.63,3.31-39.31,9.94-11.68,6.63-20.92,16.5-27.7,29.6-4.82,9.29-9.87,21.48-9.57,34.41M510.53,258.56h153.64"/>
  <path class="cls-1" d="M860.14,400.16c-24.94,0-45.94-5.21-62.98-15.63s-29.92-24.86-38.6-43.33c-8.69-18.47-13.02-39.7-13.02-63.69s4.5-45.23,13.5-63.69c9-18.47,22.09-32.99,39.31-43.57,17.2-10.57,37.96-15.86,62.27-15.86,18.62,0,35.44,3.4,50.43,10.18,14.99,6.79,27.38,16.26,37.17,28.41,9.78,12.16,16.1,26.13,18.94,41.91h-39.78c-2.53-9.47-6.95-17.76-13.26-24.86-6.32-7.1-14.05-12.62-23.2-16.57-9.16-3.94-19.26-5.92-30.31-5.92-16.1,0-29.68,3.95-40.73,11.84-11.06,7.89-19.34,18.55-24.86,31.97-5.53,13.42-8.29,28.81-8.29,46.17s2.6,32.84,7.81,46.41c5.21,13.58,13.18,24.23,23.92,31.97,10.73,7.74,24.63,11.6,41.67,11.6,18,0,32.51-4.74,43.57-14.21,11.05-9.47,18.62-22.73,22.73-39.78h39.78c-2.84,17.68-8.92,33.08-18.23,46.17-9.32,13.1-21.31,23.13-35.99,30.07-14.68,6.94-31.97,10.42-51.86,10.42Z"/>
  <path class="cls-1" d="M1059.51,206.64c7.26-16.89,15.55-29.77,29.6-38.77,14.04-9,31.33-13.5,51.86-13.5,15.15,0,28.33,2.21,39.54,6.63,11.2,4.42,20.36,10.97,27.47,19.65,7.1,8.69,12.39,19.18,15.86,31.49,3.47,12.31,5.21,26.36,5.21,42.15v142.07h-39.78v-127.39c0-15.78-1.42-28.89-4.26-39.31-2.84-10.42-6.95-18.62-12.31-24.63-5.37-5.99-11.92-10.26-19.65-12.79-7.74-2.52-16.5-3.79-26.28-3.79-12.31,0-23.52,3.24-33.62,9.71-10.11,6.47-18.23,16.97-24.39,31.49-6.16,14.52-9.23,34.1-9.23,58.72v107.97h-39.78V38.36h39.78v169.57"/>
  <path class="cls-1" d="M1476.19,354.98c-7.95,12.78-16.67,21.89-28.83,29.79-15.79,10.26-34.26,15.39-55.41,15.39-16.1,0-30.86-2.92-44.28-8.76-13.42-5.84-25.02-14.21-34.81-25.1-9.79-10.89-17.29-23.92-22.49-39.07-5.21-15.15-7.81-31.88-7.81-50.2,0-24.63,4.57-46.09,13.73-64.41,9.15-18.31,21.94-32.59,38.36-42.86,16.41-10.26,35.35-15.39,56.83-15.39,16.1,0,30.62,2.92,43.57,8.76,12.94,5.85,23.99,14.21,33.15,25.1,3.06,3.64,4.5,7.24,7.1,11.34M1399.05,367.48c15.15,0,28.49-3.79,40.02-11.37,11.52-7.58,20.44-18.15,26.76-31.73,6.31-13.57,9.47-29.36,9.47-47.36,0-13.57-1.82-25.88-5.45-36.94-3.63-11.05-8.84-20.52-15.63-28.41-6.79-7.89-14.84-13.97-24.15-18.23-9.32-4.26-19.65-6.39-31.02-6.39-15.15,0-28.41,3.71-39.78,11.13-11.37,7.42-20.21,17.92-26.52,31.49-6.32,13.58-9.47,29.36-9.47,47.36s3.15,33.79,9.47,47.36c6.31,13.58,15.15,24.15,26.52,31.73,11.37,7.58,24.63,11.37,39.78,11.37ZM1475.77,201.47v-43.31h39.31v238.2h-39.31v-39.91"/>
  <path class="cls-1" d="M1628.66,206.27c7.26-16.89,15.61-29.4,29.66-38.4,14.04-9,31.33-13.5,51.86-13.5,15.15,0,28.33,2.21,39.54,6.63,11.2,4.42,20.36,10.97,27.47,19.65,7.1,8.69,12.39,19.18,15.86,31.49,3.47,12.31,5.21,26.36,5.21,42.15v142.07h-39.78v-127.39c0-15.78-1.42-28.89-4.26-39.31-2.84-10.42-6.95-18.62-12.31-24.63-5.37-5.99-11.92-10.26-19.65-12.79-7.74-2.52-16.5-3.79-26.28-3.79-12.31,0-23.52,3.24-33.62,9.71-10.11,6.47-18.23,16.97-24.39,31.49-6.16,14.52-9.23,34.1-9.23,58.72v107.97h-39.78v-238.2h39.31v49.68"/>
  <path class="cls-1" d="M1860.77,104.18v-52.09h52.09v52.09h-52.09ZM1866.93,396.37v-238.2h39.78v238.2h-39.78Z"/>
  <path class="cls-1" d="M2059.66,400.16c-20.21,0-37.49-3.16-51.86-9.47-14.37-6.31-25.26-15.07-32.68-26.28-7.42-11.2-11.13-24.23-11.13-39.07h39.78c0,7.9,2.05,15,6.16,21.31,4.1,6.32,10.26,11.21,18.47,14.68,8.21,3.48,18.47,5.21,30.78,5.21,15.78,0,28.25-3.15,37.41-9.47,9.15-6.31,13.73-14.99,13.73-26.05,0-8.52-2.53-15.07-7.58-19.65-5.05-4.57-11.77-8.21-20.13-10.89-8.37-2.68-17.52-4.97-27.47-6.87-9.95-1.89-19.97-4.1-30.07-6.63-10.11-2.52-19.34-6.23-27.7-11.13-8.37-4.89-15.08-11.6-20.13-20.13-5.05-8.52-7.58-19.57-7.58-33.15,0-21.15,7.81-37.8,23.44-49.96,15.63-12.15,36.07-18.23,61.33-18.23,17.68,0,33.22,2.92,46.65,8.76,13.41,5.85,23.92,14.05,31.49,24.63,7.58,10.58,11.37,22.97,11.37,37.18h-38.36c0-11.05-4.58-20.05-13.73-26.99-9.16-6.94-21-10.42-35.52-10.42s-25.57,3.08-34.1,9.23c-8.52,6.16-12.79,14.76-12.79,25.81,0,8.21,2.52,14.61,7.58,19.18,5.05,4.58,11.76,8.05,20.13,10.42,8.36,2.37,17.52,4.42,27.47,6.16,9.94,1.74,19.81,3.87,29.6,6.39,9.78,2.53,18.86,6.16,27.23,10.89,8.36,4.74,15.07,11.37,20.13,19.89,5.05,8.52,7.58,19.73,7.58,33.62,0,21.78-8.13,39.07-24.39,51.86-16.26,12.79-37.97,19.18-65.12,19.18Z"/>
  <path class="cls-1" d="M2395.52,203.3c1.01-2.01,2.08-3.95,3.21-5.83,8.52-14.21,19.65-24.94,33.39-32.2,13.73-7.26,28.96-10.89,45.7-10.89,14.21,0,26.59,2.21,37.17,6.63,10.57,4.42,19.33,10.97,26.28,19.65,6.94,8.69,12.15,19.18,15.63,31.49,3.47,12.31,5.21,26.36,5.21,42.15v142.07h-39.78v-127.39c0-15.78-1.35-28.89-4.03-39.31-2.69-10.42-6.47-18.62-11.37-24.63-4.9-5.99-10.74-10.26-17.52-12.79-6.79-2.52-14.29-3.79-22.49-3.79-10.42,0-20.44,3.24-30.07,9.71-9.63,6.47-17.45,16.97-23.44,31.49-6,14.52-9,34.1-9,58.72v107.97h-39.78v-127.39c0-15.78-1.35-28.89-4.03-39.31-2.69-10.42-6.39-18.62-11.13-24.63-4.74-5.99-10.42-10.26-17.05-12.79-6.63-2.52-13.9-3.79-21.78-3.79-10.74,0-20.92,3.24-30.54,9.71-9.63,6.47-17.45,16.97-23.44,31.49-6,14.52-9,34.1-9,58.72v107.97h-39.78v-238.2h39.31v49.1M2246.22,208.14c6.94-16.89,14.6-29.15,27.7-38.15,13.1-9,28.65-13.5,46.65-13.5,13.89,0,25.96,2.13,36.23,6.39,10.26,4.26,18.78,10.58,25.57,18.94,5.47,6.75,9.86,14.67,13.18,23.78"/>
  <path class="cls-1" d="M2709.86,400.16c-20.21,0-37.49-3.16-51.86-9.47-14.37-6.31-25.26-15.07-32.68-26.28-7.42-11.2-11.13-24.23-11.13-39.07h39.78c0,7.9,2.05,15,6.16,21.31,4.1,6.32,10.26,11.21,18.47,14.68,8.21,3.48,18.47,5.21,30.78,5.21,15.78,0,28.25-3.15,37.41-9.47,9.15-6.31,13.73-14.99,13.73-26.05,0-8.52-2.53-15.07-7.58-19.65-5.05-4.57-11.77-8.21-20.13-10.89-8.37-2.68-17.52-4.97-27.47-6.87-9.95-1.89-19.97-4.1-30.07-6.63-10.11-2.52-19.34-6.23-27.7-11.13-8.37-4.89-15.08-11.6-20.13-20.13-5.05-8.52-7.58-19.57-7.58-33.15,0-21.15,7.81-37.8,23.44-49.96,15.63-12.15,36.07-18.23,61.33-18.23,17.68,0,33.22,2.92,46.65,8.76,13.41,5.85,23.92,14.05,31.49,24.63,7.58,10.58,11.37,22.97,11.37,37.18h-38.36c0-11.05-4.58-20.05-13.73-26.99-9.16-6.94-21-10.42-35.52-10.42s-25.57,3.08-34.1,9.23c-8.52,6.16-12.79,14.76-12.79,25.81,0,8.21,2.52,14.61,7.58,19.18,5.05,4.58,11.76,8.05,20.13,10.42,8.36,2.37,17.52,4.42,27.47,6.16,9.94,1.74,19.81,3.87,29.6,6.39,9.78,2.53,18.86,6.16,27.23,10.89,8.36,4.74,15.07,11.37,20.13,19.89,5.05,8.52,7.58,19.73,7.58,33.62,0,21.78-8.13,39.07-24.39,51.86-16.26,12.79-37.97,19.18-65.12,19.18Z"/>
</svg>