<?xml version="1.0" encoding="UTF-8"?>
<svg id="Layer_1" data-name="Layer 1" xmlns="http://www.w3.org/2000/svg" viewBox="0 0 2834.54 583.98">
  <defs>
    <style>
      .cls-1 {
        fill: none;
        stroke: #231f20;
        stroke-width: 6px;
      }
    </style>
  </defs>
  <path class="cls-1" d="M97.31,282.6c8.8-22.49,21.61-39.69,38.43-51.63,16.81-11.93,37.35-17.89,61.6-17.89,3.13,0,6.55.1,10.27.29,3.71.2,6.94.69,9.68,1.47v48.11c-19.17,0-36.18,1.57-51.04,4.69-14.87,3.14-27.38,8.9-37.55,17.31-10.17,8.41-17.89,20.34-23.17,35.79-5.28,15.45-7.92,35.3-7.92,59.55v130.24h-49.28V215.43h48.69v69.66"/>
  <path class="cls-1" d="M306.21,374.17c.04,1.49.37,5.11.52,6.56,1.63,16.24,5.54,30.56,11.75,42.96,8.4,16.82,20.04,29.53,34.91,38.13,14.86,8.61,31.87,12.91,51.04,12.91,15.25,0,28.75-2.54,40.48-7.63,11.73-5.08,21.41-12.03,29.04-20.83,7.63-8.8,12.8-18.28,15.55-28.45h49.28c-3.52,18.77-11.15,35.49-22.88,50.16-11.73,14.67-26.99,26.21-45.76,34.61-18.77,8.41-40.68,12.61-65.71,12.61-31.3,0-58.08-6.45-80.37-19.36-22.29-12.91-39.31-30.8-51.04-53.68-11.73-22.88-17.6-49.18-17.6-78.91s5.57-56.03,16.72-78.91c11.15-22.88,27.66-40.86,49.57-53.97,21.9-13.1,48.49-19.65,79.79-19.65s56.7,6.45,77.44,19.36c20.73,12.91,36.46,30.8,47.23,53.68,10.75,22.88,16.13,49.19,16.13,78.91v15.84h-237.99M494.13,337.49c-1.68-13.04-5.08-24.88-10.21-35.53-7.63-15.84-18.48-28.16-32.56-36.96s-30.71-13.2-49.87-13.2c-17.99,0-34.23,4.11-48.69,12.32-14.47,8.21-25.91,20.44-34.32,36.67-5.46,10.54-9.15,22.92-11.06,37.16-.15,1.12-.37,5.11-.39,6.26M305.6,339.8h192.69"/>
  <path class="cls-1" d="M615.03,510.52V67.01h49.28v443.51h-49.28Z"/>
  <path class="cls-1" d="M976.4,461.8c-9.75,15.38-20.45,24.77-35.2,34.35-19.56,12.71-42.44,19.07-68.64,19.07-19.95,0-38.23-3.62-54.85-10.85-16.63-7.23-31-17.6-43.12-31.09-12.13-13.49-21.41-29.63-27.87-48.4-6.45-18.77-9.68-39.5-9.68-62.19,0-30.51,5.66-57.1,17.01-79.79,11.34-22.68,27.18-40.38,47.52-53.09,20.33-12.7,43.8-19.07,70.4-19.07,19.95,0,37.93,3.62,53.97,10.85,16.03,7.24,29.72,17.6,41.07,31.09,3.9,4.65,6.78,8.45,10.08,13.7M881.37,474.73c18.77,0,35.29-4.69,49.57-14.08,14.27-9.39,25.32-22.49,33.15-39.31,7.82-16.81,11.73-36.37,11.73-58.67,0-16.81-2.26-32.06-6.75-45.76-4.5-13.69-10.95-25.42-19.36-35.2-8.42-9.77-18.39-17.31-29.92-22.59-11.54-5.28-24.35-7.92-38.43-7.92-18.77,0-35.2,4.6-49.28,13.79-14.08,9.19-25.03,22.2-32.85,39.01-7.83,16.82-11.73,36.37-11.73,58.67s3.91,41.85,11.73,58.67c7.82,16.82,18.77,29.92,32.85,39.31,14.08,9.39,30.51,14.08,49.28,14.08ZM976.4,269.91v-54.48h48.69v295.09h-48.69v-51.29"/>
  <path class="cls-1" d="M1220.36,335.6l83.39-120.17h58.67l-106.78,149.81M1187.68,364.56l-106.85-149.13h61.01l80.94,116.69M1222.78,389.88l-83.87,120.64h-58.08l106.86-150.98M1257.02,361.16l108.33,149.35h-61.01l-85.76-121.11"/>
  <path class="cls-1" d="M1641.08,461.95c-9.74,15.37-19.87,24.62-34.61,34.2-19.56,12.71-42.44,19.07-68.64,19.07-19.95,0-38.23-3.62-54.85-10.85-16.63-7.23-31-17.6-43.12-31.09-12.13-13.49-21.41-29.63-27.87-48.4-6.45-18.77-9.68-39.5-9.68-62.19,0-30.51,5.66-57.1,17.01-79.79,11.34-22.68,27.18-40.38,47.52-53.09,20.33-12.7,43.8-19.07,70.4-19.07,19.95,0,37.93,3.62,53.97,10.85,16.03,7.24,29.72,17.6,41.07,31.09,2.83,3.37,5.51,6.91,8.03,10.6M1546.63,474.73c18.77,0,35.29-4.69,49.57-14.08,14.27-9.39,25.32-22.49,33.15-39.31,7.82-16.81,11.73-36.37,11.73-58.67,0-16.81-2.26-32.06-6.75-45.76-4.5-13.69-10.95-25.42-19.36-35.2-8.42-9.77-18.39-17.31-29.92-22.59-11.54-5.28-24.35-7.92-38.43-7.92-18.77,0-35.2,4.6-49.28,13.79-14.08,9.19-25.03,22.2-32.85,39.01-7.83,16.82-11.73,36.37-11.73,58.67s3.91,41.85,11.73,58.67c7.82,16.82,18.77,29.92,32.85,39.31,14.08,9.39,30.51,14.08,49.28,14.08ZM1641.67,265.79v-50.36h48.69v295.09h-48.69v-50.87"/>
  <path class="cls-1" d="M1811.43,254.15h-64.17v-38.72h64.17M1851.99,215.43h106.46v38.72h-106.46M1856.38,256.73v155.23c0,17.99,1.66,31.59,4.99,40.77,3.32,9.19,8.8,15.35,16.43,18.48,7.63,3.13,17.89,4.69,30.8,4.69,7.42,0,16.03-.97,25.81-2.93,9.77-1.95,17.99-5.66,24.64-11.15v45.76c-4.31,2.35-10.17,4.2-17.6,5.57-7.43,1.37-14.87,2.35-22.29,2.93-7.43.59-13.3.88-17.6.88-16.82,0-31.19-1.57-43.12-4.69-11.94-3.13-21.71-8.6-29.33-16.43-7.63-7.82-13.2-18.57-16.72-32.27-3.52-13.69-5.28-31.09-5.28-52.21v-154.45M1807.1,217.85v-114.47h49.28v114.28"/>
  <path class="cls-1" d="M2021.81,148.55v-64.53h64.53v64.53h-64.53ZM2029.44,510.52V215.43h49.28v295.09h-49.28Z"/>
  <path class="cls-1" d="M2302.82,515.21c-30.12,0-56.61-6.45-79.49-19.36-22.88-12.91-40.58-30.8-53.09-53.68-12.52-22.88-18.77-49.18-18.77-78.91s6.25-56.61,18.77-79.49c12.51-22.88,30.21-40.77,53.09-53.68,22.88-12.91,49.37-19.36,79.49-19.36s57.1,6.45,79.79,19.36c22.68,12.91,40.28,30.8,52.8,53.68,12.51,22.88,18.77,49.38,18.77,79.49s-6.26,56.03-18.77,78.91c-12.52,22.88-30.12,40.77-52.8,53.68-22.69,12.91-49.28,19.36-79.79,19.36ZM2302.82,474.15c21.51,0,39.69-4.79,54.56-14.37,14.86-9.58,26.2-22.68,34.03-39.31,7.82-16.62,11.73-35.69,11.73-57.2,0-16.03-2.15-30.89-6.45-44.59-4.31-13.69-10.76-25.52-19.36-35.49-8.61-9.97-19.17-17.69-31.68-23.17-12.52-5.47-26.79-8.21-42.83-8.21-21.51,0-39.7,4.79-54.56,14.37-14.87,9.59-26.21,22.79-34.03,39.6-7.83,16.82-11.73,35.99-11.73,57.49s3.9,40.58,11.73,57.2c7.82,16.63,19.16,29.73,34.03,39.31,14.86,9.59,33.05,14.37,54.56,14.37Z"/>
  <path class="cls-1" d="M2575.61,270.41c8.99-20.92,19.85-31.81,37.25-42.96,17.4-11.15,38.81-16.72,64.24-16.72,18.77,0,35.1,2.74,48.99,8.21,13.88,5.48,25.23,13.59,34.03,24.35,8.8,10.76,15.34,23.76,19.65,39.01,4.3,15.25,6.45,32.66,6.45,52.21v176h-49.28v-157.81c0-19.55-1.76-35.79-5.28-48.69-3.52-12.91-8.61-23.07-15.25-30.51-6.66-7.42-14.77-12.7-24.35-15.84-9.59-3.13-20.44-4.69-32.56-4.69-15.25,0-29.14,4.02-41.65,12.03-12.52,8.02-22.59,21.03-30.21,39.01-7.63,17.99-11.44,42.24-11.44,72.74v133.76h-49.28V215.43h48.69v62.09"/>
</svg>